<?xml version="1.0" standalone="no"?><!DOCTYPE svg PUBLIC "-//W3C//DTD SVG 1.1//EN" "http://www.w3.org/Graphics/SVG/1.1/DTD/svg11.dtd"><svg t="1553595661462" class="icon" style="" viewBox="0 0 1024 1024" version="1.1" xmlns="http://www.w3.org/2000/svg" p-id="3882" xmlns:xlink="http://www.w3.org/1999/xlink" width="128" height="128"><defs><style type="text/css"></style></defs><path d="M874.039863 149.959977C970.743848 246.663961 1023.99984 375.239941 1023.99984 511.99992c0 101.055984-29.999995 199.343969-86.743986 284.231956a39.999994 39.999994 0 1 1-66.51199-44.463993C918.663856 680.087894 943.999853 597.175907 943.999853 511.99992c0-238.207963-193.79197-431.999933-431.999933-431.999932S79.999988 273.791957 79.999988 511.99992s193.79197 431.999933 431.999932 431.999933a431.183933 431.183933 0 0 0 223.471965-62.207991 39.999994 39.999994 0 1 1 41.455994 68.42399A511.21592 511.21592 0 0 1 511.99992 1023.99984c-136.759979 0-265.335959-53.255992-362.039943-149.959977C53.255992 777.335879 0 648.759899 0 511.99992c0-136.759979 53.255992-265.335959 149.959977-362.039943C246.663961 53.255992 375.239941 0 511.99992 0c136.759979 0 265.335959 53.255992 362.039943 149.959977z m-404.711936 152.879976l225.695964 130.967979C723.183887 450.15993 739.999884 479.383925 739.999884 511.99992c0 32.615995-16.815997 61.84799-44.975993 78.191988l-225.695964 130.959979a89.791986 89.791986 0 0 1-45.159993 12.303998c-15.415998 0-30.831995-4.047999-44.903993-12.151998-28.319996-16.311997-45.231993-45.599993-45.231993-78.335987V381.03994c0-32.743995 16.911997-62.03199 45.231993-78.343987 28.223996-16.255997 61.89599-16.199997 90.063986 0.152z m185.543971 218.159966c4.239999-2.464 5.127999-6.255999 5.127999-8.999999 0-2.744-0.888-6.535999-5.127999-8.991999l-225.695965-130.959979a9.839998 9.839998 0 0 0-4.991999-1.432c-1.992 0-3.703999 0.664-4.991999 1.408-2.36 1.36-5.159999 4.015999-5.16 9.015998v261.91996c0 4.999999 2.8 7.663999 5.16 9.015998a9.519999 9.519999 0 0 0 9.983998-0.016l225.695965-130.959979z" fill="#d81e06" p-id="3883"></path></svg>